<mxfile host="app.diagrams.net" modified="2024-05-02T13:01:41.456Z" agent="Mozilla/5.0 (Windows NT 10.0; Win64; x64) AppleWebKit/537.36 (KHTML, like Gecko) Chrome/124.0.0.0 Safari/537.36" etag="UqfOzKh5jUqKBpV2FUlj" version="24.3.0" type="device">
  <diagram name="Page-1" id="6TrsQpdqu2yxD2Ganpot">
    <mxGraphModel dx="1509" dy="825" grid="1" gridSize="10" guides="1" tooltips="1" connect="1" arrows="1" fold="1" page="1" pageScale="1" pageWidth="827" pageHeight="1169" math="0" shadow="0">
      <root>
        <mxCell id="0" />
        <mxCell id="1" parent="0" />
        <mxCell id="Q3QI0EhAg8i-hHH3-Zzy-1" value="&lt;p style=&quot;margin:0px;margin-top:4px;text-align:center;&quot;&gt;character&lt;/p&gt;&lt;hr size=&quot;1&quot; style=&quot;border-style:solid;&quot;&gt;&lt;p style=&quot;margin:0px;margin-left:4px;&quot;&gt;-health : int&lt;/p&gt;&lt;p style=&quot;margin:0px;margin-left:4px;&quot;&gt;-name : string&lt;/p&gt;&lt;p style=&quot;margin:0px;margin-left:4px;&quot;&gt;-isAlive : bool&lt;/p&gt;&lt;hr size=&quot;1&quot; style=&quot;border-style:solid;&quot;&gt;&lt;p style=&quot;margin:0px;margin-left:4px;&quot;&gt;+recieveDamage()&lt;/p&gt;&lt;p style=&quot;margin:0px;margin-left:4px;&quot;&gt;+heal()&lt;/p&gt;&lt;p style=&quot;margin:0px;margin-left:4px;&quot;&gt;&lt;br&gt;&lt;/p&gt;" style="verticalAlign=top;align=left;overflow=fill;html=1;whiteSpace=wrap;" parent="1" vertex="1">
          <mxGeometry x="40" y="40" width="160" height="120" as="geometry" />
        </mxCell>
        <mxCell id="Q3QI0EhAg8i-hHH3-Zzy-6" style="edgeStyle=orthogonalEdgeStyle;rounded=0;orthogonalLoop=1;jettySize=auto;html=1;entryX=0.5;entryY=0;entryDx=0;entryDy=0;" parent="1" source="Q3QI0EhAg8i-hHH3-Zzy-4" target="Q3QI0EhAg8i-hHH3-Zzy-5" edge="1">
          <mxGeometry relative="1" as="geometry" />
        </mxCell>
        <mxCell id="Q3QI0EhAg8i-hHH3-Zzy-4" value="heal" style="ellipse;whiteSpace=wrap;html=1;" parent="1" vertex="1">
          <mxGeometry x="255" y="40" width="120" height="80" as="geometry" />
        </mxCell>
        <mxCell id="JCwVGntR2cU_NiDgmsC5-1" style="edgeStyle=orthogonalEdgeStyle;rounded=0;orthogonalLoop=1;jettySize=auto;html=1;" parent="1" source="Q3QI0EhAg8i-hHH3-Zzy-5" target="JCwVGntR2cU_NiDgmsC5-2" edge="1">
          <mxGeometry relative="1" as="geometry">
            <mxPoint x="315" y="270" as="targetPoint" />
          </mxGeometry>
        </mxCell>
        <mxCell id="Q3QI0EhAg8i-hHH3-Zzy-5" value="getHealth()" style="shape=parallelogram;perimeter=parallelogramPerimeter;whiteSpace=wrap;html=1;fixedSize=1;" parent="1" vertex="1">
          <mxGeometry x="255" y="160" width="120" height="60" as="geometry" />
        </mxCell>
        <mxCell id="JCwVGntR2cU_NiDgmsC5-3" style="edgeStyle=orthogonalEdgeStyle;rounded=0;orthogonalLoop=1;jettySize=auto;html=1;" parent="1" source="JCwVGntR2cU_NiDgmsC5-2" target="JCwVGntR2cU_NiDgmsC5-4" edge="1">
          <mxGeometry relative="1" as="geometry">
            <mxPoint x="315" y="360" as="targetPoint" />
          </mxGeometry>
        </mxCell>
        <mxCell id="JCwVGntR2cU_NiDgmsC5-2" value="health = currentHealth + healingAmount" style="rounded=0;whiteSpace=wrap;html=1;" parent="1" vertex="1">
          <mxGeometry x="240" y="260" width="150" height="60" as="geometry" />
        </mxCell>
        <mxCell id="JCwVGntR2cU_NiDgmsC5-5" style="edgeStyle=orthogonalEdgeStyle;rounded=0;orthogonalLoop=1;jettySize=auto;html=1;" parent="1" source="JCwVGntR2cU_NiDgmsC5-4" target="JCwVGntR2cU_NiDgmsC5-6" edge="1">
          <mxGeometry relative="1" as="geometry">
            <mxPoint x="315" y="480" as="targetPoint" />
          </mxGeometry>
        </mxCell>
        <mxCell id="JCwVGntR2cU_NiDgmsC5-4" value="currentHealt = health" style="shape=document;whiteSpace=wrap;html=1;boundedLbl=1;" parent="1" vertex="1">
          <mxGeometry x="255" y="360" width="120" height="80" as="geometry" />
        </mxCell>
        <mxCell id="JCwVGntR2cU_NiDgmsC5-6" value="End" style="ellipse;whiteSpace=wrap;html=1;" parent="1" vertex="1">
          <mxGeometry x="255" y="480" width="120" height="80" as="geometry" />
        </mxCell>
        <mxCell id="JCwVGntR2cU_NiDgmsC5-9" style="edgeStyle=orthogonalEdgeStyle;rounded=0;orthogonalLoop=1;jettySize=auto;html=1;entryX=0.5;entryY=0;entryDx=0;entryDy=0;" parent="1" source="JCwVGntR2cU_NiDgmsC5-8" target="JCwVGntR2cU_NiDgmsC5-20" edge="1">
          <mxGeometry relative="1" as="geometry">
            <mxPoint x="813.0285714285715" y="155.0190476190478" as="targetPoint" />
          </mxGeometry>
        </mxCell>
        <mxCell id="JCwVGntR2cU_NiDgmsC5-8" value="craftChocolatada" style="ellipse;whiteSpace=wrap;html=1;" parent="1" vertex="1">
          <mxGeometry x="753" y="40" width="120" height="80" as="geometry" />
        </mxCell>
        <mxCell id="JCwVGntR2cU_NiDgmsC5-20" value="grabMug" style="rounded=0;whiteSpace=wrap;html=1;" parent="1" vertex="1">
          <mxGeometry x="753" y="165" width="120" height="60" as="geometry" />
        </mxCell>
        <mxCell id="JCwVGntR2cU_NiDgmsC5-21" value="pourTwoTeaspoonsOf&lt;div&gt;Cocoa&lt;/div&gt;" style="rounded=0;whiteSpace=wrap;html=1;" parent="1" vertex="1">
          <mxGeometry x="753" y="265" width="120" height="60" as="geometry" />
        </mxCell>
        <mxCell id="JCwVGntR2cU_NiDgmsC5-22" style="edgeStyle=orthogonalEdgeStyle;rounded=0;orthogonalLoop=1;jettySize=auto;html=1;entryX=0.504;entryY=-0.052;entryDx=0;entryDy=0;entryPerimeter=0;" parent="1" source="JCwVGntR2cU_NiDgmsC5-20" target="JCwVGntR2cU_NiDgmsC5-21" edge="1">
          <mxGeometry relative="1" as="geometry" />
        </mxCell>
        <mxCell id="JCwVGntR2cU_NiDgmsC5-23" value="pourMilk" style="rounded=0;whiteSpace=wrap;html=1;" parent="1" vertex="1">
          <mxGeometry x="753" y="365" width="120" height="60" as="geometry" />
        </mxCell>
        <mxCell id="JCwVGntR2cU_NiDgmsC5-24" style="edgeStyle=orthogonalEdgeStyle;rounded=0;orthogonalLoop=1;jettySize=auto;html=1;entryX=0.508;entryY=-0.052;entryDx=0;entryDy=0;entryPerimeter=0;" parent="1" source="JCwVGntR2cU_NiDgmsC5-21" target="JCwVGntR2cU_NiDgmsC5-23" edge="1">
          <mxGeometry relative="1" as="geometry" />
        </mxCell>
        <mxCell id="JCwVGntR2cU_NiDgmsC5-26" style="edgeStyle=orthogonalEdgeStyle;rounded=0;orthogonalLoop=1;jettySize=auto;html=1;entryX=0.504;entryY=-0.046;entryDx=0;entryDy=0;entryPerimeter=0;" parent="1" source="JCwVGntR2cU_NiDgmsC5-23" target="JCwVGntR2cU_NiDgmsC5-27" edge="1">
          <mxGeometry relative="1" as="geometry">
            <mxPoint x="1032.28" y="490.74" as="targetPoint" />
          </mxGeometry>
        </mxCell>
        <mxCell id="JCwVGntR2cU_NiDgmsC5-29" style="edgeStyle=orthogonalEdgeStyle;rounded=0;orthogonalLoop=1;jettySize=auto;html=1;entryX=0;entryY=0.5;entryDx=0;entryDy=0;" parent="1" source="JCwVGntR2cU_NiDgmsC5-27" target="JCwVGntR2cU_NiDgmsC5-28" edge="1">
          <mxGeometry relative="1" as="geometry" />
        </mxCell>
        <mxCell id="JCwVGntR2cU_NiDgmsC5-30" value="True" style="edgeLabel;html=1;align=center;verticalAlign=middle;resizable=0;points=[];" parent="JCwVGntR2cU_NiDgmsC5-29" vertex="1" connectable="0">
          <mxGeometry x="-0.2575" y="-1" relative="1" as="geometry">
            <mxPoint as="offset" />
          </mxGeometry>
        </mxCell>
        <mxCell id="JCwVGntR2cU_NiDgmsC5-27" value="doYouAdd&lt;div&gt;Sugar&lt;/div&gt;" style="rhombus;whiteSpace=wrap;html=1;" parent="1" vertex="1">
          <mxGeometry x="753" y="465" width="120" height="80" as="geometry" />
        </mxCell>
        <mxCell id="JCwVGntR2cU_NiDgmsC5-37" style="edgeStyle=orthogonalEdgeStyle;rounded=0;orthogonalLoop=1;jettySize=auto;html=1;entryX=1;entryY=0.5;entryDx=0;entryDy=0;" parent="1" source="JCwVGntR2cU_NiDgmsC5-28" target="JCwVGntR2cU_NiDgmsC5-35" edge="1">
          <mxGeometry relative="1" as="geometry">
            <Array as="points">
              <mxPoint x="993" y="635" />
            </Array>
          </mxGeometry>
        </mxCell>
        <mxCell id="JCwVGntR2cU_NiDgmsC5-28" value="goToHell" style="rounded=0;whiteSpace=wrap;html=1;" parent="1" vertex="1">
          <mxGeometry x="933" y="475" width="120" height="60" as="geometry" />
        </mxCell>
        <mxCell id="JCwVGntR2cU_NiDgmsC5-36" style="edgeStyle=orthogonalEdgeStyle;rounded=0;orthogonalLoop=1;jettySize=auto;html=1;entryX=0;entryY=0.5;entryDx=0;entryDy=0;" parent="1" source="JCwVGntR2cU_NiDgmsC5-31" target="JCwVGntR2cU_NiDgmsC5-35" edge="1">
          <mxGeometry relative="1" as="geometry">
            <Array as="points">
              <mxPoint x="633" y="635" />
            </Array>
          </mxGeometry>
        </mxCell>
        <mxCell id="JCwVGntR2cU_NiDgmsC5-31" value="Stir" style="rounded=0;whiteSpace=wrap;html=1;" parent="1" vertex="1">
          <mxGeometry x="573" y="475" width="120" height="60" as="geometry" />
        </mxCell>
        <mxCell id="JCwVGntR2cU_NiDgmsC5-32" style="edgeStyle=orthogonalEdgeStyle;rounded=0;orthogonalLoop=1;jettySize=auto;html=1;entryX=1.031;entryY=0.501;entryDx=0;entryDy=0;entryPerimeter=0;" parent="1" source="JCwVGntR2cU_NiDgmsC5-27" target="JCwVGntR2cU_NiDgmsC5-31" edge="1">
          <mxGeometry relative="1" as="geometry" />
        </mxCell>
        <mxCell id="JCwVGntR2cU_NiDgmsC5-34" value="False" style="edgeLabel;html=1;align=center;verticalAlign=middle;resizable=0;points=[];" parent="JCwVGntR2cU_NiDgmsC5-32" vertex="1" connectable="0">
          <mxGeometry x="-0.1451" y="1" relative="1" as="geometry">
            <mxPoint x="-2" as="offset" />
          </mxGeometry>
        </mxCell>
        <mxCell id="JCwVGntR2cU_NiDgmsC5-35" value="End" style="ellipse;whiteSpace=wrap;html=1;" parent="1" vertex="1">
          <mxGeometry x="753" y="595" width="120" height="80" as="geometry" />
        </mxCell>
        <mxCell id="VD4lxAuzKKnuMsdgNhgU-1" value="&lt;p style=&quot;margin:0px;margin-top:4px;text-align:center;&quot;&gt;&lt;b&gt;Chocolatada&lt;/b&gt;&lt;/p&gt;&lt;hr size=&quot;1&quot; style=&quot;border-style:solid;&quot;&gt;&lt;p style=&quot;margin:0px;margin-left:4px;&quot;&gt;-mugCapacity : int&lt;/p&gt;&lt;p style=&quot;margin:0px;margin-left:4px;&quot;&gt;-isHot : bool&lt;/p&gt;&lt;hr size=&quot;1&quot; style=&quot;border-style:solid;&quot;&gt;&lt;p style=&quot;margin:0px;margin-left:4px;&quot;&gt;+crafteable()&lt;/p&gt;" style="verticalAlign=top;align=left;overflow=fill;html=1;whiteSpace=wrap;" vertex="1" parent="1">
          <mxGeometry x="480" y="40" width="160" height="90" as="geometry" />
        </mxCell>
      </root>
    </mxGraphModel>
  </diagram>
</mxfile>
